<svg xmlns="http://www.w3.org/2000/svg" xmlns:xlink="http://www.w3.org/1999/xlink" width="300" zoomAndPan="magnify" viewBox="0 0 224.87999 74.999997" height="100" preserveAspectRatio="xMidYMid meet" version="1.0"><defs><g/><clipPath id="89d6e84104"><path d="M 2.132812 30.164062 L 25.371094 30.164062 L 25.371094 57.152344 L 2.132812 57.152344 Z M 2.132812 30.164062 " clip-rule="nonzero"/></clipPath><clipPath id="fe29c481b8"><path d="M 12.855469 57.125 L 2.738281 49.722656 C 2.359375 49.441406 2.132812 48.996094 2.132812 48.523438 L 2.132812 38.554688 L 12.855469 46.402344 Z M 14.449219 57.125 L 24.5625 49.722656 C 24.945312 49.441406 25.171875 48.996094 25.171875 48.523438 L 25.171875 38.554688 L 14.449219 46.402344 Z M 12.816406 30.511719 L 2.894531 37.28125 L 13.617188 45.128906 L 13.652344 45.101562 L 13.6875 45.128906 L 24.410156 37.28125 L 14.488281 30.511719 C 13.984375 30.167969 13.320312 30.167969 12.816406 30.511719 Z M 12.816406 30.511719 " clip-rule="nonzero"/></clipPath><clipPath id="fb0586b2d9"><path d="M 16.746094 7.515625 L 39.980469 7.515625 L 39.980469 34.5 L 16.746094 34.5 Z M 16.746094 7.515625 " clip-rule="nonzero"/></clipPath><clipPath id="cf2d1e6d83"><path d="M 27.46875 34.476562 L 17.351562 27.070312 C 16.96875 26.792969 16.746094 26.347656 16.746094 25.875 L 16.746094 15.90625 L 27.46875 23.753906 Z M 29.0625 34.476562 L 39.175781 27.070312 C 39.558594 26.792969 39.785156 26.347656 39.785156 25.875 L 39.785156 15.90625 L 29.0625 23.753906 Z M 27.425781 7.863281 L 17.503906 14.632812 L 28.226562 22.480469 L 28.265625 22.453125 L 28.300781 22.480469 L 39.023438 14.632812 L 29.101562 7.863281 C 28.597656 7.519531 27.933594 7.519531 27.425781 7.863281 Z M 27.425781 7.863281 " clip-rule="nonzero"/></clipPath><clipPath id="8893d63828"><path d="M 31.355469 30.164062 L 54.59375 30.164062 L 54.59375 57.152344 L 31.355469 57.152344 Z M 31.355469 30.164062 " clip-rule="nonzero"/></clipPath><clipPath id="75a4a91200"><path d="M 42.078125 57.125 L 31.964844 49.722656 C 31.582031 49.441406 31.355469 48.996094 31.355469 48.523438 L 31.355469 38.554688 L 42.078125 46.402344 Z M 43.675781 57.125 L 53.789062 49.722656 C 54.171875 49.441406 54.394531 48.996094 54.394531 48.523438 L 54.394531 38.554688 L 43.675781 46.402344 Z M 42.039062 30.511719 L 32.117188 37.28125 L 42.839844 45.128906 L 42.875 45.101562 L 42.914062 45.128906 L 53.636719 37.28125 L 43.714844 30.511719 C 43.207031 30.167969 42.542969 30.167969 42.039062 30.511719 Z M 42.039062 30.511719 " clip-rule="nonzero"/></clipPath></defs><g clip-path="url(#89d6e84104)"><g clip-path="url(#fe29c481b8)"><path fill="#000000" d="M 2.132812 30.167969 L 2.132812 57.125 L 25.171875 57.125 L 25.171875 30.167969 Z M 2.132812 30.167969 " fill-opacity="1" fill-rule="nonzero"/></g></g><g clip-path="url(#fb0586b2d9)"><g clip-path="url(#cf2d1e6d83)"><path fill="#000000" d="M 16.746094 7.519531 L 16.746094 34.476562 L 39.785156 34.476562 L 39.785156 7.519531 Z M 16.746094 7.519531 " fill-opacity="1" fill-rule="nonzero"/></g></g><g clip-path="url(#8893d63828)"><g clip-path="url(#75a4a91200)"><path fill="#000000" d="M 31.355469 30.167969 L 31.355469 57.125 L 54.394531 57.125 L 54.394531 30.167969 Z M 31.355469 30.167969 " fill-opacity="1" fill-rule="nonzero"/></g></g><g fill="#000000" fill-opacity="1"><g transform="translate(56.515845, 36.165714)"><g><path d="M 5.671875 -12.34375 L 8.15625 -12.34375 L 13.40625 0 L 10.59375 0 L 9.46875 -2.75 L 4.28125 -2.75 L 3.171875 0 L 0.421875 0 Z M 8.5 -5.125 L 6.875 -9.09375 L 5.25 -5.125 Z M 8.5 -5.125 "/></g></g></g><g fill="#000000" fill-opacity="1"><g transform="translate(70.330349, 36.165714)"><g><path d="M 1.46875 -12.25 L 10.796875 -12.25 L 10.796875 -9.796875 L 4.171875 -9.796875 L 4.171875 -7.1875 L 10.015625 -7.1875 L 10.015625 -4.75 L 4.171875 -4.75 L 4.171875 0 L 1.46875 0 Z M 1.46875 -12.25 "/></g></g></g><g fill="#000000" fill-opacity="1"><g transform="translate(81.801632, 36.165714)"><g><path d="M 1.46875 -12.25 L 7.0625 -12.25 C 8.613281 -12.25 9.804688 -11.832031 10.640625 -11 C 11.335938 -10.300781 11.6875 -9.367188 11.6875 -8.203125 L 11.6875 -8.171875 C 11.6875 -7.179688 11.441406 -6.375 10.953125 -5.75 C 10.472656 -5.125 9.84375 -4.664062 9.0625 -4.375 L 12.0625 0 L 8.90625 0 L 6.28125 -3.921875 L 4.171875 -3.921875 L 4.171875 0 L 1.46875 0 Z M 6.890625 -6.296875 C 7.554688 -6.296875 8.066406 -6.453125 8.421875 -6.765625 C 8.773438 -7.085938 8.953125 -7.507812 8.953125 -8.03125 L 8.953125 -8.0625 C 8.953125 -8.644531 8.765625 -9.082031 8.390625 -9.375 C 8.023438 -9.664062 7.507812 -9.8125 6.84375 -9.8125 L 4.171875 -9.8125 L 4.171875 -6.296875 Z M 6.890625 -6.296875 "/></g></g></g><g fill="#000000" fill-opacity="1"><g transform="translate(94.444532, 36.165714)"><g><path d="M 1.59375 -12.25 L 4.28125 -12.25 L 4.28125 0 L 1.59375 0 Z M 1.59375 -12.25 "/></g></g></g><g fill="#000000" fill-opacity="1"><g transform="translate(100.320066, 36.165714)"><g><path d="M 7.203125 0.203125 C 6.304688 0.203125 5.472656 0.0390625 4.703125 -0.28125 C 3.929688 -0.601562 3.265625 -1.046875 2.703125 -1.609375 C 2.148438 -2.179688 1.710938 -2.851562 1.390625 -3.625 C 1.078125 -4.394531 0.921875 -5.21875 0.921875 -6.09375 L 0.921875 -6.125 C 0.921875 -7 1.078125 -7.816406 1.390625 -8.578125 C 1.710938 -9.347656 2.148438 -10.019531 2.703125 -10.59375 C 3.265625 -11.175781 3.9375 -11.628906 4.71875 -11.953125 C 5.5 -12.285156 6.363281 -12.453125 7.3125 -12.453125 C 7.882812 -12.453125 8.40625 -12.40625 8.875 -12.3125 C 9.351562 -12.226562 9.785156 -12.101562 10.171875 -11.9375 C 10.554688 -11.769531 10.910156 -11.566406 11.234375 -11.328125 C 11.554688 -11.097656 11.859375 -10.84375 12.140625 -10.5625 L 10.4375 -8.59375 C 9.957031 -9.019531 9.46875 -9.351562 8.96875 -9.59375 C 8.46875 -9.84375 7.910156 -9.96875 7.296875 -9.96875 C 6.785156 -9.96875 6.3125 -9.867188 5.875 -9.671875 C 5.4375 -9.472656 5.054688 -9.195312 4.734375 -8.84375 C 4.421875 -8.5 4.175781 -8.097656 4 -7.640625 C 3.832031 -7.179688 3.75 -6.6875 3.75 -6.15625 L 3.75 -6.125 C 3.75 -5.601562 3.832031 -5.109375 4 -4.640625 C 4.175781 -4.171875 4.421875 -3.757812 4.734375 -3.40625 C 5.046875 -3.0625 5.421875 -2.785156 5.859375 -2.578125 C 6.296875 -2.378906 6.773438 -2.28125 7.296875 -2.28125 C 7.992188 -2.28125 8.582031 -2.40625 9.0625 -2.65625 C 9.550781 -2.914062 10.035156 -3.265625 10.515625 -3.703125 L 12.234375 -1.984375 C 11.921875 -1.640625 11.59375 -1.332031 11.25 -1.0625 C 10.914062 -0.800781 10.546875 -0.570312 10.140625 -0.375 C 9.734375 -0.1875 9.289062 -0.046875 8.8125 0.046875 C 8.34375 0.148438 7.804688 0.203125 7.203125 0.203125 Z M 7.203125 0.203125 "/></g></g></g><g fill="#000000" fill-opacity="1"><g transform="translate(113.225261, 36.165714)"><g><path d="M 5.671875 -12.34375 L 8.15625 -12.34375 L 13.40625 0 L 10.59375 0 L 9.46875 -2.75 L 4.28125 -2.75 L 3.171875 0 L 0.421875 0 Z M 8.5 -5.125 L 6.875 -9.09375 L 5.25 -5.125 Z M 8.5 -5.125 "/></g></g></g><g fill="#000000" fill-opacity="1"><g transform="translate(127.039765, 36.165714)"><g><path d="M 1.46875 -12.25 L 3.953125 -12.25 L 9.6875 -4.703125 L 9.6875 -12.25 L 12.359375 -12.25 L 12.359375 0 L 10.0625 0 L 4.125 -7.78125 L 4.125 0 L 1.46875 0 Z M 1.46875 -12.25 "/></g></g></g><g fill="#000000" fill-opacity="1"><g transform="translate(143.169591, 36.165714)"><g><path d="M 1.46875 -12.25 L 7.15625 -12.25 C 8.570312 -12.25 9.640625 -11.890625 10.359375 -11.171875 C 10.921875 -10.609375 11.203125 -9.910156 11.203125 -9.078125 L 11.203125 -9.046875 C 11.203125 -8.691406 11.15625 -8.378906 11.0625 -8.109375 C 10.976562 -7.847656 10.863281 -7.609375 10.71875 -7.390625 C 10.570312 -7.171875 10.398438 -6.976562 10.203125 -6.8125 C 10.015625 -6.65625 9.8125 -6.519531 9.59375 -6.40625 C 10.300781 -6.132812 10.859375 -5.769531 11.265625 -5.3125 C 11.671875 -4.851562 11.875 -4.210938 11.875 -3.390625 L 11.875 -3.359375 C 11.875 -2.796875 11.765625 -2.304688 11.546875 -1.890625 C 11.335938 -1.472656 11.03125 -1.125 10.625 -0.84375 C 10.226562 -0.5625 9.742188 -0.347656 9.171875 -0.203125 C 8.609375 -0.0664062 7.984375 0 7.296875 0 L 1.46875 0 Z M 8.515625 -8.625 C 8.515625 -9.03125 8.363281 -9.34375 8.0625 -9.5625 C 7.757812 -9.78125 7.320312 -9.890625 6.75 -9.890625 L 4.09375 -9.890625 L 4.09375 -7.296875 L 6.578125 -7.296875 C 7.171875 -7.296875 7.640625 -7.394531 7.984375 -7.59375 C 8.335938 -7.800781 8.515625 -8.132812 8.515625 -8.59375 Z M 9.203125 -3.734375 C 9.203125 -4.140625 9.046875 -4.460938 8.734375 -4.703125 C 8.421875 -4.941406 7.910156 -5.0625 7.203125 -5.0625 L 4.09375 -5.0625 L 4.09375 -2.359375 L 7.296875 -2.359375 C 7.890625 -2.359375 8.351562 -2.46875 8.6875 -2.6875 C 9.03125 -2.90625 9.203125 -3.238281 9.203125 -3.6875 Z M 9.203125 -3.734375 "/></g></g></g><g fill="#000000" fill-opacity="1"><g transform="translate(155.795001, 36.165714)"><g><path d="M 1.59375 -12.25 L 4.28125 -12.25 L 4.28125 0 L 1.59375 0 Z M 1.59375 -12.25 "/></g></g></g><g fill="#000000" fill-opacity="1"><g transform="translate(161.670535, 36.165714)"><g><path d="M 4.328125 -9.765625 L 0.59375 -9.765625 L 0.59375 -12.25 L 10.75 -12.25 L 10.75 -9.765625 L 7.015625 -9.765625 L 7.015625 0 L 4.328125 0 Z M 4.328125 -9.765625 "/></g></g></g><g fill="#000000" fill-opacity="1"><g transform="translate(173.001932, 36.165714)"><g><path d="M 7.203125 0.203125 C 6.304688 0.203125 5.472656 0.0390625 4.703125 -0.28125 C 3.929688 -0.601562 3.265625 -1.046875 2.703125 -1.609375 C 2.148438 -2.179688 1.710938 -2.851562 1.390625 -3.625 C 1.078125 -4.394531 0.921875 -5.21875 0.921875 -6.09375 L 0.921875 -6.125 C 0.921875 -7 1.078125 -7.816406 1.390625 -8.578125 C 1.710938 -9.347656 2.148438 -10.019531 2.703125 -10.59375 C 3.265625 -11.175781 3.9375 -11.628906 4.71875 -11.953125 C 5.5 -12.285156 6.363281 -12.453125 7.3125 -12.453125 C 7.882812 -12.453125 8.40625 -12.40625 8.875 -12.3125 C 9.351562 -12.226562 9.785156 -12.101562 10.171875 -11.9375 C 10.554688 -11.769531 10.910156 -11.566406 11.234375 -11.328125 C 11.554688 -11.097656 11.859375 -10.84375 12.140625 -10.5625 L 10.4375 -8.59375 C 9.957031 -9.019531 9.46875 -9.351562 8.96875 -9.59375 C 8.46875 -9.84375 7.910156 -9.96875 7.296875 -9.96875 C 6.785156 -9.96875 6.3125 -9.867188 5.875 -9.671875 C 5.4375 -9.472656 5.054688 -9.195312 4.734375 -8.84375 C 4.421875 -8.5 4.175781 -8.097656 4 -7.640625 C 3.832031 -7.179688 3.75 -6.6875 3.75 -6.15625 L 3.75 -6.125 C 3.75 -5.601562 3.832031 -5.109375 4 -4.640625 C 4.175781 -4.171875 4.421875 -3.757812 4.734375 -3.40625 C 5.046875 -3.0625 5.421875 -2.785156 5.859375 -2.578125 C 6.296875 -2.378906 6.773438 -2.28125 7.296875 -2.28125 C 7.992188 -2.28125 8.582031 -2.40625 9.0625 -2.65625 C 9.550781 -2.914062 10.035156 -3.265625 10.515625 -3.703125 L 12.234375 -1.984375 C 11.921875 -1.640625 11.59375 -1.332031 11.25 -1.0625 C 10.914062 -0.800781 10.546875 -0.570312 10.140625 -0.375 C 9.734375 -0.1875 9.289062 -0.046875 8.8125 0.046875 C 8.34375 0.148438 7.804688 0.203125 7.203125 0.203125 Z M 7.203125 0.203125 "/></g></g></g><g fill="#000000" fill-opacity="1"><g transform="translate(185.907127, 36.165714)"><g><path d="M 7.421875 0.203125 C 6.472656 0.203125 5.601562 0.0390625 4.8125 -0.28125 C 4.019531 -0.613281 3.332031 -1.0625 2.75 -1.625 C 2.175781 -2.195312 1.726562 -2.863281 1.40625 -3.625 C 1.082031 -4.394531 0.921875 -5.21875 0.921875 -6.09375 L 0.921875 -6.125 C 0.921875 -7 1.082031 -7.816406 1.40625 -8.578125 C 1.738281 -9.347656 2.191406 -10.019531 2.765625 -10.59375 C 3.347656 -11.175781 4.035156 -11.628906 4.828125 -11.953125 C 5.628906 -12.285156 6.503906 -12.453125 7.453125 -12.453125 C 8.398438 -12.453125 9.269531 -12.285156 10.0625 -11.953125 C 10.851562 -11.628906 11.535156 -11.179688 12.109375 -10.609375 C 12.691406 -10.046875 13.144531 -9.378906 13.46875 -8.609375 C 13.789062 -7.847656 13.953125 -7.03125 13.953125 -6.15625 L 13.953125 -6.125 C 13.953125 -5.25 13.785156 -4.425781 13.453125 -3.65625 C 13.128906 -2.894531 12.675781 -2.222656 12.09375 -1.640625 C 11.519531 -1.066406 10.832031 -0.613281 10.03125 -0.28125 C 9.238281 0.0390625 8.367188 0.203125 7.421875 0.203125 Z M 7.453125 -2.28125 C 7.992188 -2.28125 8.488281 -2.378906 8.9375 -2.578125 C 9.394531 -2.773438 9.785156 -3.046875 10.109375 -3.390625 C 10.429688 -3.742188 10.679688 -4.148438 10.859375 -4.609375 C 11.035156 -5.066406 11.125 -5.5625 11.125 -6.09375 L 11.125 -6.125 C 11.125 -6.644531 11.035156 -7.140625 10.859375 -7.609375 C 10.679688 -8.078125 10.425781 -8.484375 10.09375 -8.828125 C 9.757812 -9.179688 9.363281 -9.457031 8.90625 -9.65625 C 8.445312 -9.863281 7.953125 -9.96875 7.421875 -9.96875 C 6.867188 -9.96875 6.367188 -9.867188 5.921875 -9.671875 C 5.472656 -9.472656 5.085938 -9.195312 4.765625 -8.84375 C 4.441406 -8.5 4.191406 -8.097656 4.015625 -7.640625 C 3.835938 -7.179688 3.75 -6.6875 3.75 -6.15625 L 3.75 -6.125 C 3.75 -5.601562 3.835938 -5.109375 4.015625 -4.640625 C 4.191406 -4.171875 4.445312 -3.757812 4.78125 -3.40625 C 5.113281 -3.0625 5.503906 -2.785156 5.953125 -2.578125 C 6.398438 -2.378906 6.898438 -2.28125 7.453125 -2.28125 Z M 7.453125 -2.28125 "/></g></g></g><g fill="#000000" fill-opacity="1"><g transform="translate(200.770837, 36.165714)"><g><path d="M 1.59375 -12.25 L 4.28125 -12.25 L 4.28125 0 L 1.59375 0 Z M 1.59375 -12.25 "/></g></g></g><g fill="#000000" fill-opacity="1"><g transform="translate(206.64637, 36.165714)"><g><path d="M 1.46875 -12.25 L 3.953125 -12.25 L 9.6875 -4.703125 L 9.6875 -12.25 L 12.359375 -12.25 L 12.359375 0 L 10.0625 0 L 4.125 -7.78125 L 4.125 0 L 1.46875 0 Z M 1.46875 -12.25 "/></g></g></g><g fill="#000000" fill-opacity="1"><g transform="translate(146.379181, 50.346631)"><g><path d="M 1.375 -9.765625 L 2.484375 -9.765625 L 2.484375 -5.421875 L 8.125 -5.421875 L 8.125 -9.765625 L 9.21875 -9.765625 L 9.21875 0 L 8.125 0 L 8.125 -4.390625 L 2.484375 -4.390625 L 2.484375 0 L 1.375 0 Z M 1.375 -9.765625 "/></g></g></g><g fill="#000000" fill-opacity="1"><g transform="translate(158.223034, 50.346631)"><g><path d="M 4.5 0.171875 C 3.957031 0.171875 3.457031 0.0703125 3 -0.125 C 2.539062 -0.332031 2.144531 -0.601562 1.8125 -0.9375 C 1.476562 -1.28125 1.21875 -1.675781 1.03125 -2.125 C 0.84375 -2.570312 0.75 -3.054688 0.75 -3.578125 L 0.75 -3.59375 C 0.75 -4.113281 0.84375 -4.597656 1.03125 -5.046875 C 1.21875 -5.503906 1.476562 -5.90625 1.8125 -6.25 C 2.144531 -6.59375 2.539062 -6.863281 3 -7.0625 C 3.46875 -7.269531 3.972656 -7.375 4.515625 -7.375 C 5.054688 -7.375 5.554688 -7.269531 6.015625 -7.0625 C 6.484375 -6.863281 6.882812 -6.59375 7.21875 -6.25 C 7.550781 -5.914062 7.8125 -5.519531 8 -5.0625 C 8.1875 -4.613281 8.28125 -4.132812 8.28125 -3.625 L 8.28125 -3.59375 C 8.28125 -3.082031 8.179688 -2.597656 7.984375 -2.140625 C 7.796875 -1.691406 7.535156 -1.296875 7.203125 -0.953125 C 6.867188 -0.609375 6.46875 -0.332031 6 -0.125 C 5.53125 0.0703125 5.03125 0.171875 4.5 0.171875 Z M 4.515625 -0.796875 C 4.910156 -0.796875 5.269531 -0.867188 5.59375 -1.015625 C 5.914062 -1.160156 6.191406 -1.359375 6.421875 -1.609375 C 6.660156 -1.867188 6.84375 -2.164062 6.96875 -2.5 C 7.101562 -2.832031 7.171875 -3.191406 7.171875 -3.578125 L 7.171875 -3.59375 C 7.171875 -3.988281 7.101562 -4.351562 6.96875 -4.6875 C 6.832031 -5.03125 6.644531 -5.328125 6.40625 -5.578125 C 6.164062 -5.835938 5.878906 -6.039062 5.546875 -6.1875 C 5.222656 -6.34375 4.875 -6.421875 4.5 -6.421875 C 4.101562 -6.421875 3.742188 -6.34375 3.421875 -6.1875 C 3.097656 -6.039062 2.820312 -5.84375 2.59375 -5.59375 C 2.363281 -5.34375 2.179688 -5.046875 2.046875 -4.703125 C 1.921875 -4.367188 1.859375 -4.007812 1.859375 -3.625 L 1.859375 -3.59375 C 1.859375 -3.207031 1.925781 -2.84375 2.0625 -2.5 C 2.195312 -2.164062 2.378906 -1.867188 2.609375 -1.609375 C 2.847656 -1.359375 3.128906 -1.160156 3.453125 -1.015625 C 3.785156 -0.867188 4.140625 -0.796875 4.515625 -0.796875 Z M 4.515625 -0.796875 "/></g></g></g><g fill="#000000" fill-opacity="1"><g transform="translate(168.47664, 50.346631)"><g><path d="M 1.296875 -10.1875 L 2.375 -10.1875 L 2.375 0 L 1.296875 0 Z M 1.296875 -10.1875 "/></g></g></g><g fill="#000000" fill-opacity="1"><g transform="translate(173.387586, 50.346631)"><g><path d="M 4.234375 0.15625 C 3.796875 0.15625 3.367188 0.0703125 2.953125 -0.09375 C 2.546875 -0.257812 2.179688 -0.503906 1.859375 -0.828125 C 1.535156 -1.148438 1.273438 -1.539062 1.078125 -2 C 0.878906 -2.457031 0.78125 -2.988281 0.78125 -3.59375 L 0.78125 -3.609375 C 0.78125 -4.203125 0.878906 -4.726562 1.078125 -5.1875 C 1.273438 -5.65625 1.535156 -6.046875 1.859375 -6.359375 C 2.179688 -6.679688 2.546875 -6.929688 2.953125 -7.109375 C 3.367188 -7.285156 3.796875 -7.375 4.234375 -7.375 C 4.566406 -7.375 4.867188 -7.328125 5.140625 -7.234375 C 5.421875 -7.148438 5.671875 -7.039062 5.890625 -6.90625 C 6.117188 -6.769531 6.320312 -6.609375 6.5 -6.421875 C 6.6875 -6.234375 6.847656 -6.035156 6.984375 -5.828125 L 6.984375 -10.1875 L 8.0625 -10.1875 L 8.0625 0 L 6.984375 0 L 6.984375 -1.453125 C 6.835938 -1.234375 6.671875 -1.023438 6.484375 -0.828125 C 6.304688 -0.640625 6.101562 -0.46875 5.875 -0.3125 C 5.65625 -0.164062 5.410156 -0.0507812 5.140625 0.03125 C 4.867188 0.113281 4.566406 0.15625 4.234375 0.15625 Z M 4.421875 -0.8125 C 4.753906 -0.8125 5.078125 -0.878906 5.390625 -1.015625 C 5.703125 -1.148438 5.976562 -1.335938 6.21875 -1.578125 C 6.46875 -1.828125 6.664062 -2.117188 6.8125 -2.453125 C 6.957031 -2.796875 7.03125 -3.175781 7.03125 -3.59375 L 7.03125 -3.625 C 7.03125 -4.039062 6.957031 -4.421875 6.8125 -4.765625 C 6.664062 -5.109375 6.46875 -5.398438 6.21875 -5.640625 C 5.976562 -5.878906 5.703125 -6.066406 5.390625 -6.203125 C 5.078125 -6.335938 4.753906 -6.40625 4.421875 -6.40625 C 4.066406 -6.40625 3.734375 -6.34375 3.421875 -6.21875 C 3.117188 -6.09375 2.851562 -5.910156 2.625 -5.671875 C 2.394531 -5.429688 2.210938 -5.140625 2.078125 -4.796875 C 1.953125 -4.453125 1.890625 -4.0625 1.890625 -3.625 L 1.890625 -3.59375 C 1.890625 -3.164062 1.953125 -2.78125 2.078125 -2.4375 C 2.210938 -2.09375 2.394531 -1.800781 2.625 -1.5625 C 2.863281 -1.320312 3.132812 -1.132812 3.4375 -1 C 3.75 -0.875 4.078125 -0.8125 4.421875 -0.8125 Z M 4.421875 -0.8125 "/></g></g></g><g fill="#000000" fill-opacity="1"><g transform="translate(183.892291, 50.346631)"><g><path d="M 1.234375 -9.96875 L 2.453125 -9.96875 L 2.453125 -8.796875 L 1.234375 -8.796875 Z M 1.296875 -7.21875 L 2.375 -7.21875 L 2.375 0 L 1.296875 0 Z M 1.296875 -7.21875 "/></g></g></g><g fill="#000000" fill-opacity="1"><g transform="translate(188.803236, 50.346631)"><g><path d="M 1.203125 -7.21875 L 2.28125 -7.21875 L 2.28125 -5.953125 C 2.519531 -6.347656 2.832031 -6.679688 3.21875 -6.953125 C 3.613281 -7.234375 4.125 -7.375 4.75 -7.375 C 5.1875 -7.375 5.570312 -7.300781 5.90625 -7.15625 C 6.25 -7.019531 6.535156 -6.820312 6.765625 -6.5625 C 7.003906 -6.3125 7.1875 -6.007812 7.3125 -5.65625 C 7.4375 -5.300781 7.5 -4.910156 7.5 -4.484375 L 7.5 0 L 6.4375 0 L 6.4375 -4.21875 C 6.4375 -4.882812 6.265625 -5.410156 5.921875 -5.796875 C 5.578125 -6.191406 5.082031 -6.390625 4.4375 -6.390625 C 4.132812 -6.390625 3.847656 -6.332031 3.578125 -6.21875 C 3.316406 -6.113281 3.085938 -5.960938 2.890625 -5.765625 C 2.691406 -5.566406 2.539062 -5.328125 2.4375 -5.046875 C 2.332031 -4.765625 2.28125 -4.457031 2.28125 -4.125 L 2.28125 0 L 1.203125 0 Z M 1.203125 -7.21875 "/></g></g></g><g fill="#000000" fill-opacity="1"><g transform="translate(198.638361, 50.346631)"><g><path d="M 4.390625 2.265625 C 3.785156 2.265625 3.207031 2.179688 2.65625 2.015625 C 2.113281 1.847656 1.597656 1.59375 1.109375 1.25 L 1.609375 0.421875 C 2.023438 0.710938 2.457031 0.9375 2.90625 1.09375 C 3.363281 1.257812 3.851562 1.34375 4.375 1.34375 C 5.175781 1.34375 5.8125 1.125 6.28125 0.6875 C 6.757812 0.257812 7 -0.378906 7 -1.234375 L 7 -2.078125 C 6.6875 -1.660156 6.300781 -1.300781 5.84375 -1 C 5.382812 -0.707031 4.828125 -0.5625 4.171875 -0.5625 C 3.734375 -0.5625 3.3125 -0.640625 2.90625 -0.796875 C 2.5 -0.953125 2.140625 -1.175781 1.828125 -1.46875 C 1.515625 -1.757812 1.257812 -2.113281 1.0625 -2.53125 C 0.875 -2.945312 0.78125 -3.414062 0.78125 -3.9375 L 0.78125 -3.96875 C 0.78125 -4.5 0.875 -4.972656 1.0625 -5.390625 C 1.257812 -5.804688 1.515625 -6.160156 1.828125 -6.453125 C 2.140625 -6.742188 2.5 -6.96875 2.90625 -7.125 C 3.320312 -7.289062 3.742188 -7.375 4.171875 -7.375 C 4.503906 -7.375 4.8125 -7.332031 5.09375 -7.25 C 5.382812 -7.164062 5.640625 -7.054688 5.859375 -6.921875 C 6.085938 -6.796875 6.296875 -6.644531 6.484375 -6.46875 C 6.671875 -6.289062 6.835938 -6.109375 6.984375 -5.921875 L 6.984375 -7.21875 L 8.0625 -7.21875 L 8.0625 -1.25 C 8.0625 -0.695312 7.984375 -0.210938 7.828125 0.203125 C 7.671875 0.628906 7.441406 0.992188 7.140625 1.296875 C 6.816406 1.617188 6.421875 1.859375 5.953125 2.015625 C 5.492188 2.179688 4.972656 2.265625 4.390625 2.265625 Z M 4.375 -1.5 C 4.71875 -1.5 5.046875 -1.554688 5.359375 -1.671875 C 5.679688 -1.796875 5.960938 -1.96875 6.203125 -2.1875 C 6.453125 -2.40625 6.648438 -2.660156 6.796875 -2.953125 C 6.953125 -3.253906 7.03125 -3.585938 7.03125 -3.953125 L 7.03125 -3.984375 C 7.03125 -4.347656 6.953125 -4.675781 6.796875 -4.96875 C 6.648438 -5.269531 6.453125 -5.523438 6.203125 -5.734375 C 5.960938 -5.953125 5.679688 -6.117188 5.359375 -6.234375 C 5.046875 -6.359375 4.71875 -6.421875 4.375 -6.421875 C 4.03125 -6.421875 3.707031 -6.359375 3.40625 -6.234375 C 3.101562 -6.117188 2.835938 -5.957031 2.609375 -5.75 C 2.390625 -5.539062 2.210938 -5.285156 2.078125 -4.984375 C 1.953125 -4.691406 1.890625 -4.359375 1.890625 -3.984375 L 1.890625 -3.96875 C 1.890625 -3.601562 1.953125 -3.269531 2.078125 -2.96875 C 2.210938 -2.664062 2.394531 -2.40625 2.625 -2.1875 C 2.851562 -1.976562 3.117188 -1.8125 3.421875 -1.6875 C 3.722656 -1.5625 4.039062 -1.5 4.375 -1.5 Z M 4.375 -1.5 "/></g></g></g><g fill="#000000" fill-opacity="1"><g transform="translate(209.143066, 50.346631)"><g><path d="M 3.59375 0.140625 C 3.0625 0.140625 2.53125 0.046875 2 -0.140625 C 1.476562 -0.335938 1.007812 -0.597656 0.59375 -0.921875 L 1.140625 -1.6875 C 1.535156 -1.382812 1.941406 -1.15625 2.359375 -1 C 2.785156 -0.84375 3.210938 -0.765625 3.640625 -0.765625 C 4.078125 -0.765625 4.4375 -0.863281 4.71875 -1.0625 C 5 -1.269531 5.140625 -1.550781 5.140625 -1.90625 L 5.140625 -1.9375 C 5.140625 -2.113281 5.085938 -2.265625 4.984375 -2.390625 C 4.890625 -2.523438 4.757812 -2.640625 4.59375 -2.734375 C 4.425781 -2.835938 4.234375 -2.925781 4.015625 -3 C 3.796875 -3.070312 3.566406 -3.140625 3.328125 -3.203125 C 3.054688 -3.285156 2.773438 -3.375 2.484375 -3.46875 C 2.203125 -3.570312 1.945312 -3.695312 1.71875 -3.84375 C 1.488281 -4 1.300781 -4.1875 1.15625 -4.40625 C 1.019531 -4.632812 0.953125 -4.914062 0.953125 -5.25 L 0.953125 -5.28125 C 0.953125 -5.582031 1.007812 -5.859375 1.125 -6.109375 C 1.25 -6.367188 1.421875 -6.585938 1.640625 -6.765625 C 1.859375 -6.953125 2.117188 -7.09375 2.421875 -7.1875 C 2.722656 -7.289062 3.050781 -7.34375 3.40625 -7.34375 C 3.851562 -7.34375 4.300781 -7.269531 4.75 -7.125 C 5.207031 -6.976562 5.625 -6.785156 6 -6.546875 L 5.515625 -5.734375 C 5.179688 -5.953125 4.828125 -6.125 4.453125 -6.25 C 4.085938 -6.375 3.726562 -6.4375 3.375 -6.4375 C 2.945312 -6.4375 2.609375 -6.332031 2.359375 -6.125 C 2.109375 -5.925781 1.984375 -5.679688 1.984375 -5.390625 L 1.984375 -5.359375 C 1.984375 -5.191406 2.03125 -5.046875 2.125 -4.921875 C 2.226562 -4.796875 2.363281 -4.6875 2.53125 -4.59375 C 2.707031 -4.5 2.90625 -4.414062 3.125 -4.34375 C 3.351562 -4.269531 3.59375 -4.191406 3.84375 -4.109375 C 4.113281 -4.023438 4.382812 -3.929688 4.65625 -3.828125 C 4.9375 -3.734375 5.1875 -3.601562 5.40625 -3.4375 C 5.632812 -3.28125 5.816406 -3.09375 5.953125 -2.875 C 6.085938 -2.65625 6.15625 -2.378906 6.15625 -2.046875 L 6.15625 -2.015625 C 6.15625 -1.671875 6.085938 -1.367188 5.953125 -1.109375 C 5.816406 -0.847656 5.632812 -0.625 5.40625 -0.4375 C 5.175781 -0.25 4.90625 -0.101562 4.59375 0 C 4.28125 0.09375 3.945312 0.140625 3.59375 0.140625 Z M 3.59375 0.140625 "/></g></g></g></svg>